<?xml version="1.0" encoding="UTF-8" standalone="no"?>
<!-- Created with Inkscape (http://www.inkscape.org/) -->

<svg
   width="464.54645mm"
   height="480.65613mm"
   viewBox="0 0 464.54645 480.65613"
   version="1.1"
   id="svg1"
   xml:space="preserve"
   xmlns="http://www.w3.org/2000/svg"
   xmlns:svg="http://www.w3.org/2000/svg"><defs
     id="defs1" /><g
     id="layer1"
     transform="translate(816.38367,769.7666)"><path
       style="fill:#69254e;fill-opacity:1"
       d="m -587.32357,-289.15205 c -0.6548,-0.0524 -3.3338,-0.2248 -5.9531,-0.38311 -13.8138,-0.8349 -35.5334,-5.54304 -50.0017,-10.83883 -19.6269,-7.18392 -43.2714,-22.39993 -60.8587,-39.1646 -4.654,-4.43626 -6.4478,-5.63013 -10.3188,-6.86755 -1.2894,-0.41219 -3.3127,-1.59767 -7.1177,-4.17049 -9.079,-6.13886 -12.8155,-7.80971 -15.5489,-6.95289 -3.1549,0.98898 -3.3507,0.7767 -2.0648,-2.23857 1.4675,-3.44112 -0.3289,-6.45793 -2.3764,-3.99082 -0.6672,0.80391 -1.5133,0.51382 -1.6943,-0.58087 -0.2404,-1.45498 -0.2051,-2.9235 0.075,-3.09635 0.6811,-0.42097 1.125,-2.74542 0.6949,-3.63956 -1.1742,-2.44157 -8.7115,-8.82136 -11.3461,-9.60376 -7.1816,-2.13269 -12.2629,6.11598 -6.2278,10.10979 2.3391,1.54793 0.065,2.68107 -2.5945,1.29262 -3.1507,-1.64509 -4.1797,-4.34188 -3.5551,-9.31659 0.4821,-3.83912 4.3572,-7.64667 8.7388,-8.58635 3.256,-0.6983 2.6868,-2.31314 -2.755,-7.81529 -8.0306,-8.11971 -14.7951,-10.51133 -21.7702,-7.69703 -5.9119,2.38528 -5.1819,-4.35831 1.193,-11.02167 1.3729,-1.43499 2.7173,-2.97278 2.9877,-3.41731 2.4003,-3.94702 -10.5583,-5.00696 -14.4257,-1.17993 -2.6227,2.59529 -3.7406,1.71451 -2.9474,-2.32224 0.7852,-3.99621 2.8807,-7.54933 5.842,-9.90575 3.4735,-2.76396 0.024,-4.01767 -6.4994,-2.36181 -4.2233,1.07209 -4.1928,-0.0339 0.1432,-5.19137 2.2417,-2.66635 2.7257,-3.51554 2.1332,-3.74287 -1.6336,-0.62691 -6.0184,1.31147 -8.4666,3.74287 -4.6542,4.62231 -5.3415,10.30123 -2.2147,18.29859 1.4341,3.66798 0.5145,4.02058 -1.5585,0.59755 -5.0978,-8.41772 -2.3283,-19.72124 6.1143,-24.95548 12.1045,-7.50457 32.0696,2.61285 38.1745,19.34512 1.843,5.05103 -0.8206,3.14383 -6.1759,-4.42224 -4.3433,-6.13632 -12.401,-10.6321 -17.69,-9.87015 -3.2553,0.46899 -3.3106,1.15357 -0.2216,2.74501 1.0084,0.51956 2.5479,1.38756 3.4211,1.92888 0.8731,0.54132 2.5995,1.29188 3.8364,1.6679 4.0025,1.21676 6.7162,3.26155 8.2073,6.18431 1.2404,2.43138 0.7303,2.56735 -2.9598,0.789 -5.4757,-2.63886 -9.6276,-3.2691 -12.3566,-1.87566 -1.5169,0.77456 -1.3685,0.88009 3.0255,2.1524 6.6575,1.92769 11.2288,4.51568 18.5034,10.47543 5.7312,4.69529 8.3344,8.2674 8.3344,11.43638 0,1.27248 -0.514,0.99249 -4.2739,-2.32804 -5.1685,-4.56459 -7.4724,-5.57048 -13.2452,-5.78282 -7.2285,-0.26589 -7.1308,1.38523 0.2153,3.64212 5.9635,1.83212 9.4841,4.1806 15.0722,10.05426 1.5912,1.67249 4.3267,4.52999 6.0789,6.35 1.7522,1.82 3.7657,4.14254 4.4744,5.16118 0.7088,1.01865 1.8195,2.54484 2.4684,3.39154 0.6488,0.84669 2.5908,3.61806 4.3156,6.15858 5.2978,7.80351 12.0652,15.75779 14.4841,17.02439 1.6257,0.85121 0.6881,-1.04481 -2.8609,-5.78553 -3.5892,-4.79442 -4.1492,-5.60227 -8.5644,-12.35494 -1.8195,-2.78285 -3.7809,-5.99754 -4.3587,-7.14375 -0.5777,-1.14622 -1.7304,-3.27466 -2.5614,-4.72987 -3.2853,-5.75279 -8.0535,-17.48278 -10.5755,-26.0163 -1.8656,-6.3125 -1.9258,-6.48063 -4.3752,-12.21599 -7.5702,-17.72641 -14.7974,-23.87346 -25.6483,-21.81507 -3.347,0.63492 -3.6964,0.35199 -2.4743,-2.00363 0.8936,-1.72223 0.8924,-1.7233 -3.1553,-2.87593 -7.105,-2.02321 -12.8354,-5.29692 -17.5345,-10.01724 -5.62,-5.64538 -5.9359,-8.39787 -0.7771,-6.77171 1.5605,0.49191 7.0654,-0.69102 8.5151,-1.82975 2.4107,-1.89375 -3.884,-9.09731 -8.9297,-10.21901 -1.6484,-0.36643 -4.878,-0.82391 -5.8165,-0.82391 -1.7403,0 -1.6594,-1.68069 0.1405,-2.91909 0.6424,-0.44196 1.5434,-1.27067 2.0021,-1.84158 2.2154,-2.75673 5.9651,-3.75494 14.3097,-3.80944 5.3974,-0.0352 5.2865,0.0369 4.1689,-2.70887 -1.8542,-4.55593 -8.3946,-9.6231 -12.421,-9.6231 -2.7658,0 -3.2645,-1.09308 -0.9733,-2.13335 1.4196,-0.64458 3.4478,-0.64515 6.0684,-0.002 6.9873,1.71562 11.9039,7.98739 18.5778,23.6986 3.234,7.61317 5.2276,11.60795 7.4855,14.99925 1.7668,2.65355 1.7668,2.65355 0.3249,3.91814 -1.4419,1.2646 -1.4419,1.2646 -0.2042,3.73153 1.7162,3.42084 1.3332,3.46399 -1.7805,0.20062 -4.4821,-4.69749 -4.5124,-4.72009 -8.516,-6.34877 -5.2478,-2.13486 -11.5004,-1.80717 -16.5533,0.86754 -3.1233,1.65326 6.5112,7.60129 14.0891,8.6982 10.4379,1.51091 17.125,4.74202 25.4,12.27285 1.5517,1.41218 1.5738,1.21027 0.6671,-6.09678 -0.8084,-6.51549 -1.2526,-8.15643 -3.3301,-12.30069 -0.8578,-1.71127 -2.5222,-5.29092 -3.6987,-7.95477 -4.2013,-9.51325 -8.99,-17.32972 -16.0454,-26.19022 -9.9059,-12.44041 -15.3069,-28.7982 -13.5686,-41.09482 0.6526,-4.61644 3.2848,-12.69495 4.9228,-15.10864 1.5906,-2.34388 4.5945,-5.25985 4.5945,-4.45999 0,0.33174 -1.0823,2.22642 -1.6741,2.9307 -4.6321,5.5122 -6.5994,22.47665 -3.6507,31.48027 2.699,8.24121 3.75,8.1041 4.2534,-0.55484 0.5385,-9.26198 1.8449,-13.02327 9.006,-25.92917 0.2423,-0.43656 0.9016,-1.62718 1.4653,-2.64583 0.5636,-1.01865 1.4019,-2.4474 1.8629,-3.175 6.1985,-9.78328 6.8856,-20.40711 1.8347,-28.36819 -2.3937,-3.77289 -1.8514,-4.93207 0.9385,-2.00633 2.85,2.98865 5.3556,7.79823 6.3046,12.10188 0.9049,4.10338 1.8109,1.60391 1.9116,-5.27331 0.051,-3.47459 0.8283,-4.73393 1.5121,-2.44936 1.3299,4.44338 1.3288,4.42652 1.0237,15.01018 -0.1618,5.61337 8.369,-2.27915 11.4339,-10.57841 1.3994,-3.78928 1.6871,-5.67574 1.735,-11.37709 0.077,-9.14396 1.3369,-4.89861 1.6383,5.51927 0.2759,9.53677 -0.4764,11.09159 -10.0456,20.76197 -8.3054,8.39322 -9.9792,10.43213 -7.3517,8.9554 1.179,-0.66263 2.4654,-0.74827 2.9248,-0.19473 0.5204,0.62705 -1.4534,2.49866 -4.2122,3.99414 -15.2243,8.25283 -21.3508,25.11732 -15.4887,42.63602 2.656,7.93717 7.6214,14.79002 5.573,7.69136 -3.6641,-12.69788 -3.5917,-23.23619 0.2162,-31.48582 1.7298,-3.74742 2.7615,-1.3206 1.4828,3.48784 -1.1766,4.42464 -0.6041,4.6931 1.8555,0.87006 3.1589,-4.90988 4.298,-6.51331 7.3868,-10.39777 1.6869,-2.12138 4.6043,-5.85193 6.4832,-8.29011 3.3902,-4.39935 4.361,-5.39512 4.9221,-5.04837 0.3171,0.19598 0.2749,0.51062 -0.5787,4.31885 -1.6152,7.20607 4.7896,1.61395 8.5126,-7.43251 1.6385,-3.98126 1.7616,-3.8913 1.9245,1.40537 0.2116,6.88055 1.0287,8.77835 3.4208,7.94448 1.3635,-0.47533 1.5327,-0.0812 1.9354,4.50891 0.4686,5.34056 0.5076,5.48897 3.3077,12.59519 4.5917,11.65325 4.5272,9.99749 -0.3883,-9.98121 -1.9478,-7.91659 -3.191,-20.68718 -2.1522,-22.10787 0.5704,-0.78003 0.6805,-0.46299 1.2142,3.49537 0.6456,4.78813 0.7308,5.1631 3.3596,14.77604 1.2336,4.51115 2.5832,9.92849 2.999,12.03854 1.0043,5.09579 1.4493,7.12128 2.1219,9.65729 3.4394,12.96776 -3.377,27.5867 -15.7585,33.79697 -4.3938,2.20384 -9.222,5.73651 -10.063,7.3629 -1.0334,1.99833 0.4173,1.80958 2.7313,-0.35536 0.9765,-0.91362 4.5734,-3.52146 7.9932,-5.79521 16.8814,-11.22431 19.6621,-16.11808 18.7224,-32.95 -0.2351,-4.21176 1.089,-7.03329 2.084,-4.44055 1.0918,2.84522 1.4389,-4.05488 0.3821,-7.59605 -0.2732,-0.9154 -0.8778,-2.97405 -1.3435,-4.57478 -0.9684,-3.32839 -2.3184,-7.58396 -5.9173,-18.65313 -1.3958,-4.29286 -2.6514,-8.28145 -2.7903,-8.86354 -0.4429,-1.85623 -1.5859,-9.42252 -1.8786,-12.43541 -0.6697,-6.89539 -1.1512,-8.01497 -2.209,-5.13654 -0.2453,0.66741 -1.2346,2.57241 -2.1985,4.23333 -0.9638,1.66093 -2.0374,3.54055 -2.3857,4.17692 -2.5554,4.66888 -6.2501,8.42742 -9.4251,9.58794 -2.0503,0.74938 -1.9152,0.36731 1.6472,-4.65957 8.9814,-12.67384 10.7178,-18.67053 8.925,-30.82396 -1.7217,-11.67191 -5.6918,-16.98479 -10.7218,-14.34815 -2.0186,1.05816 -2.4162,1.07904 -2.415,0.12679 0,-2.70441 5.2476,-5.08584 7.7684,-3.52789 4.4532,2.75225 7.8023,9.37705 9.4409,18.67529 1.0719,6.0825 1.8934,6.71532 3.8295,2.9501 1.269,-2.46795 3.5446,-4.59955 7.1039,-6.65455 6.5847,-3.80173 7.1073,-3.29432 1.9527,1.89596 -5.911,5.95192 -7.5719,9.75555 -7.6636,17.5502 -0.1071,9.10768 0.5767,10.23646 3.8479,6.35225 4.0669,-4.82893 7.1138,-5.98837 10.7692,-4.09807 1.7121,0.88535 0.4249,1.88436 -1.8677,1.44957 -5.9999,-1.13785 -9.6617,11.86589 -6.447,22.89417 0.6706,2.3005 1.5564,5.64599 2.3978,9.05569 0.5373,2.17709 0.8816,2.0955 0.8816,-0.20887 0,-11.08498 5.6129,-21.41057 12.8812,-23.69675 1.5085,-0.47447 1.5176,-0.49104 1.1501,-2.0897 -0.8715,-3.79129 -1.4532,-12.02692 -1.084,-15.34583 1.0747,-9.66027 4.6452,-16.20108 14.6775,-26.88757 4.8712,-5.18886 4.5874,-4.34152 3.046,-9.09577 -3.1476,-9.70825 -3.4982,-19.08316 -0.9847,-26.32603 3.8811,-11.18329 7.4456,-15.96303 26.4681,-35.49194 3.8907,-3.99426 7.8793,-8.33151 8.8636,-9.63833 5.1038,-6.77652 6.6009,-9.03602 7.8763,-11.88744 1.3166,-2.94365 4.9387,-12.39875 6.7402,-17.5948 4.0356,-11.63962 6.7744,-16.56337 13.7568,-24.73174 1.2407,-1.45147 2.4939,-2.92177 2.785,-3.26733 1.5775,-1.87302 9.5449,-8.22238 12.1708,-9.69909 0.7276,-0.40918 2.2159,-1.25603 3.3073,-1.88189 2.3082,-1.32359 6.3063,-3.12871 9.8277,-4.43717 11.3785,-4.22786 25.4591,-3.66426 32.3987,1.29681 1.7286,1.23577 4.6964,2.13822 7.7799,2.36571 9.3309,0.68842 18.9478,7.84421 26.4988,19.7172 7.1714,11.27613 10.5196,20.51791 12.797,35.32188 0.9359,6.08393 2.7315,13.52578 3.7665,15.61042 0.7793,1.56944 5.1819,8.17168 6.7045,10.05416 13.0055,16.07907 15.7509,22.31706 15.9099,36.14973 0.054,4.72951 0.098,5.14178 0.6125,5.77079 4.141,5.06421 8.9086,14.6739 9.7716,19.69591 0.7825,4.55393 -0.074,14.1867 -1.2622,14.1867 -0.1196,0 -0.1446,0.11769 -0.056,0.26155 0.093,0.14998 -0.014,0.19434 -0.249,0.10398 -0.2258,-0.0867 -0.4148,-0.47225 -0.42,-0.85686 -0.086,-6.4078 -1.8988,-16.32427 -3.6006,-19.69884 -1.5942,-3.16096 -5.6513,-8.38483 -6.5121,-8.38483 -3.3445,0 -4.9593,7.33514 -2.9705,13.49375 3.3095,10.24819 3.2099,15.79683 -0.4411,24.58231 -0.9047,2.17691 -0.031,3.07351 4.4056,4.51895 1.0128,0.32999 3.7927,1.49973 6.6146,2.78323 0.7276,0.33095 2.8112,1.27939 4.6302,2.10765 12.5568,5.71759 15.3477,7.90742 17.338,13.60425 0.927,2.65318 1.838,13.97762 1.769,21.98902 -0.013,1.52797 -0.055,5.33797 -0.093,8.46667 -0.073,6.02442 -0.095,5.78669 1.8863,19.97604 0.4268,3.05594 0.9587,7.10407 1.1821,8.99584 1.1936,10.10719 2.0648,17.89413 2.3978,21.43125 0.2054,2.18281 0.4899,5.04031 0.6321,6.35 0.1422,1.30969 0.4536,4.34578 0.692,6.74687 0.606,6.10271 0.534,5.86047 1.3677,4.6035 9.9738,-15.03848 33.96721,-5.75038 42.95754,16.62932 0.765,1.90432 1.14941,1.96003 0.91271,0.13229 -1.33546,-10.31197 -6.45946,-17.03808 -18.46785,-24.24215 -11.1891,-6.71254 -16.8867,-14.34594 -17.3257,-23.21213 -0.2424,-4.89558 1.2764,-4.72309 3.7387,0.42459 3.009,6.29069 8.4197,12.43793 14.59029,16.57644 7.31543,4.90634 9.15415,6.2952 11.82997,8.93559 7.76207,7.65931 9.93264,14.45051 10.2811,32.16714 0.0129,0.65484 0.0855,1.01203 0.16141,0.79375 0.0759,-0.21828 0.41516,-1.11125 0.75393,-1.98438 0.78779,-2.03038 2.6308,-14.72465 2.42005,-16.66875 -0.71916,-6.63409 -8.1525,-15.51688 -16.18604,-19.34223 -4.83371,-2.30168 -12.89191,-9.4047 -16.17741,-14.25985 -2.0985,-3.10096 -2.4111,-3.74206 -4.7552,-9.75073 -2.2299,-5.71592 -2.0843,-4.86099 -3.2737,-19.22115 -1.504,-18.15852 -5.7963,-25.56349 -14.5129,-25.03752 -3.4434,0.20778 -4.1214,-0.13554 -3.3381,-1.69034 0.6148,-1.22047 5.9031,-2.56651 8.1233,-2.06766 3.0348,0.68187 6.2979,3.58861 9.6106,8.56098 2.8237,4.23851 3.427,4.09228 3.7319,-0.90459 0.4191,-6.86638 -1.7,-12.85598 -6.1976,-17.51783 -3.3586,-3.48135 -3.2623,-4.27293 0.3143,-2.58157 0.5731,0.27098 1.3682,0.4927 1.7671,0.4927 2.6618,0 6.5808,8.93404 7.3772,16.8178 0.4905,4.85618 0.6414,5.02013 1.9934,2.16605 5.66721,-11.96385 3.6411,-29.42097 -3.3582,-28.93454 -3.573,0.24831 -3.3178,-0.99471 0.3993,-1.94539 2.2958,-0.58718 2.9872,-0.46645 3.7183,0.64926 0.255,0.38922 0.8539,0.87072 1.3308,1.06998 1.0327,0.43152 2.31374,1.8287 3.09085,3.37117 0.83225,1.65195 1.02583,1.84513 1.4752,1.47218 2.15273,-1.78661 2.21029,-13.0877 0.0897,-17.61921 -1.59242,-3.40292 -3.3325,-5.56032 -6.8209,-8.45659 -1.2229,-1.01538 -1.4924,-1.92821 -0.5691,-1.92821 0.756,0 1.9775,0.5426 5.79465,2.57407 1.55583,0.82801 3.30285,2.87444 5.19987,6.09103 1.52823,2.59126 1.82552,2.15452 3.55701,-5.22552 2.62874,-11.2043 8.28623,-17.71559 13.49987,-15.53719 1.23676,0.51676 2.80521,2.47504 2.44267,3.04979 -0.39563,0.62721 -0.93747,0.72164 -0.83882,0.14619 0.0645,-0.37629 -0.088,-0.49735 -0.65259,-0.51791 -0.40523,-0.0147 -1.20857,-0.18253 -1.78519,-0.37283 -5.19636,-1.71496 -10.0842,8.08515 -10.06806,20.18646 0.0128,9.61075 2.11242,15.12963 9.15309,24.05915 3.41632,4.33284 3.38805,5.29107 -0.0842,2.85263 -4.97797,-3.49589 -8.33852,-8.16631 -11.56081,-16.06695 -1.33782,-3.28016 -1.52185,-3.01245 -2.22559,3.23753 -0.73519,6.52925 -2.97642,15.91099 -5.18238,21.69334 -6.92666,18.15637 -9.70976,30.30861 -6.84286,29.87868 1.2091,-0.18131 1.2091,-0.18131 0.9834,2.4325 -1.3575,15.72188 3.50238,26.32186 14.7809,32.23909 0.541,0.28384 1.67082,1.10246 2.51071,1.81917 0.83989,0.7167 2.54038,1.98462 3.77886,2.8176 1.23848,0.83297 3.15818,2.3612 4.26599,3.39605 2.08282,1.94566 2.35142,2.04026 2.35142,0.82817 0,-1.95907 -5.46403,-6.4146 -10.38367,-8.46715 -3.73497,-1.55828 -8.14323,-6.73042 -11.19853,-13.13906 -4.16598,-8.73822 -3.19378,-20.81633 3.32851,-41.35401 1.76484,-5.55721 2.7479,-9.50194 3.42868,-13.75833 0.7873,-4.92238 1.07562,-5.08554 1.16888,-0.66146 0.11396,5.40617 -0.53561,9.49478 -3.27875,20.6375 -3.68667,14.97539 -3.05363,16.00296 1.94894,3.16351 1.68254,-4.31837 1.76334,-4.67516 1.85477,-8.19059 0.0874,-3.36021 0.6239,-4.52656 1.93124,-4.19844 1.9233,0.48272 3.88228,-5.08138 3.41238,-9.69219 -0.17017,-1.66975 0.19522,-2.65925 0.58291,-1.57853 0.12874,0.35887 0.56067,1.56505 0.95983,2.6804 3.38909,9.46978 9.07368,13.45146 7.40587,5.18731 -0.73994,-3.66648 0.14333,-3.16946 4.54368,2.55674 1.4463,1.88207 3.63071,4.68004 4.85423,6.2177 1.22353,1.53767 2.76523,3.62919 3.426,4.64784 0.66077,1.01865 1.69291,2.52178 2.29364,3.34029 0.60073,0.81851 1.21959,1.83054 1.37525,2.24896 0.82235,2.21049 0.98001,2.55578 1.32419,2.89995 1.01197,1.01198 1.50285,-1.26905 0.83473,-3.87879 -0.70126,-2.73914 0.41278,-4.1177 1.74796,-2.16301 3.92093,5.74016 3.68398,19.20337 -0.56402,32.04793 -1.42455,4.30736 -1.38583,4.37791 0.80704,1.47069 12.82049,-16.99689 7.63583,-42.93114 -10.31195,-51.58144 -3.67316,-1.77036 -3.98662,-2.09247 -2.59449,-2.66601 3.60985,-1.48724 3.7964,-1.00873 -3.02499,-7.75921 -8.80424,-8.7127 -9.94007,-11.00296 -10.22954,-20.62662 -0.2122,-7.05466 0.90796,-12.74284 1.29581,-6.58014 0.70824,11.25348 2.82655,16.74373 8.33207,21.59512 3.94947,3.48023 4.74987,2.713 3.95103,-3.7873 -0.44981,-3.6602 0.73342,-11.25938 1.75315,-11.25938 0.67267,0 0.79616,0.61964 0.93498,4.69125 0.18792,5.51163 0.9284,6.44908 2.10097,2.65982 0.63478,-2.05133 2.4233,-5.83039 3.79209,-8.01253 3.06516,-4.88649 4.49945,-5.44883 2.02452,-0.79375 -3.187,5.99441 -3.71878,13.60624 -1.42741,20.43209 0.81821,2.43741 1.47569,3.7479 4.2181,8.4075 8.87511,15.07961 10.35099,19.29456 10.95787,31.29464 0.29502,5.83342 0.70336,6.02749 2.60892,1.23998 3.87229,-9.72868 3.14005,-21.36984 -2.02845,-32.24862 -1.8319,-3.85583 -1.91314,-4.9726 -0.22588,-3.105 7.12616,7.88781 9.40428,24.18854 5.13029,36.70896 -2.30979,6.76639 -5.66359,13.49217 -9.17326,18.39621 -8.8664,12.38898 -10.76571,15.30844 -13.9224,21.40029 -2.18275,4.21233 -3.51724,7.2756 -4.70328,10.79618 -1.09481,3.24977 -1.83091,4.69027 -2.68159,5.24766 -1.46837,0.96211 -2.32417,3.87214 -3.41234,11.60318 -1.14066,8.10406 -1.11056,8.20459 1.7266,5.76604 8.17136,-7.0233 14.30422,-10.46388 21.16899,-11.87595 13.80738,-2.84017 19.6211,-7.33345 11.94571,-9.23253 -8.63915,-2.13754 -11.59878,-1.10775 -19.9192,6.93081 -3.69687,3.57165 -3.78971,3.47384 -1.6554,-1.74384 1.05479,-2.57863 1.02438,-2.80643 -0.40515,-3.03502 -1.43169,-0.22893 -1.52337,-0.49613 -0.62464,-1.82045 1.51306,-2.22957 7.73835,-15.01922 9.02983,-18.55149 6.17319,-16.88408 16.51721,-25.5769 24.44931,-20.54652 1.72238,1.09231 1.40963,1.32651 -1.77141,1.32651 -4.83094,0 -7.52413,1.50651 -10.80224,6.04254 -3.08571,4.26981 -3.29951,6.36185 -0.61303,5.99882 5.14028,-0.69462 12.55733,0.0592 14.0287,1.42581 0.43656,0.40547 1.2402,1.00374 1.78587,1.32949 1.131,0.67516 2.68407,2.4792 2.9783,3.45959 0.10919,0.3638 0.43255,1.12512 0.71859,1.69182 0.58366,1.15636 0.0623,1.22021 -2.72498,0.33371 -1.30657,-0.41556 -1.31829,-0.41224 -6.11879,1.73105 -1.4753,0.65868 -4.66019,3.765 -5.93785,5.79137 -2.19822,3.48638 -0.96348,4.48249 6.67797,5.38739 0.45028,0.0533 1.61015,-0.0518 2.57747,-0.23356 2.00116,-0.37606 2.02779,-0.36568 2.02779,0.79029 0,4.33918 -11.16663,12.92947 -21.16666,16.28313 -4.06133,1.36203 -4.18604,1.45752 -3.4596,2.64911 1.46484,2.40277 0.60419,3.05107 -2.72959,2.05608 -10.27419,-3.0664 -21.53444,9.58362 -27.93714,31.38524 -5.44118,18.5276 -11.5114,32.20873 -20.48518,46.1698 -3.93573,6.12308 -4.14133,6.42554 -8.42543,12.39357 -3.0865,4.29957 -3.2807,4.69771 -2.0369,4.17473 2.6769,-1.12557 7.8026,-7.26269 14.72153,-17.62664 5.72583,-8.57676 7.37146,-10.81438 10.87718,-14.79011 1.84772,-2.09544 3.7565,-4.2981 4.24171,-4.89479 6.55317,-8.05866 12.23799,-12.24626 19.19,-14.13589 5.30137,-1.44097 4.7892,-3.37811 -0.88018,-3.32904 -5.94867,0.0515 -10.20628,2.02919 -13.89856,6.456 -1.84641,2.21373 -2.42985,2.58939 -3.2991,2.12418 -2.60508,-1.3942 4.75012,-10.30007 13.88063,-16.80704 4.62699,-3.29747 8.4367,-5.20195 12.7,-6.34872 3.21561,-0.86495 3.67945,-1.1998 2.62189,-1.89274 -2.19956,-1.44121 -7.83912,-0.41764 -12.54376,2.27668 -3.95901,2.26729 -4.42571,2.12385 -2.85232,-0.87671 1.60479,-3.06042 4.06883,-5.16186 7.61482,-6.49423 1.67349,-0.6288 3.62498,-1.51676 4.33666,-1.97324 0.71168,-0.45649 2.25581,-1.30623 3.4314,-1.88831 3.27338,-1.62078 2.63505,-2.51354 -1.79719,-2.51354 -5.74791,0 -11.47485,3.65075 -15.9597,10.17381 -6.06549,8.82206 -7.48075,9.86816 -5.76281,4.25963 4.20151,-13.71663 20.26272,-24.65823 31.90545,-21.73539 12.19668,3.06191 17.72939,19.65558 9.64878,28.93858 -1.94526,2.2347 -3.26284,2.36084 -1.57593,0.15087 6.16881,-8.08158 3.44513,-20.58092 -5.36576,-24.62418 -1.62925,-0.74766 -3.25049,-1.07058 -3.25049,-0.64745 0,0.80819 1.2733,3.50201 2.50634,5.30244 3.42611,5.00268 3.39228,6.07823 -0.14562,4.6297 -5.37989,-2.20269 -10.20832,-0.0601 -6.45203,2.86301 3.7878,2.94767 6.19105,8.56959 5.34235,12.49735 -0.45068,2.08575 -0.62407,2.0804 -2.96654,-0.0916 -3.45048,-3.19933 -8.17608,-3.79876 -13.19028,-1.67315 -1.15246,0.48855 -1.18325,1.02942 -0.17658,3.10104 0.48503,0.99813 0.82084,1.3941 2.74999,3.24257 1.3685,1.31128 3.60112,5.4698 3.60112,6.70753 0,0.60117 0.19548,1.90294 0.4344,2.89281 0.7235,2.99754 0.15997,3.20477 -4.19026,1.54091 -8.31307,-3.17955 -16.12215,1.02996 -25.28216,13.62841 -1.15484,1.58834 -0.9738,1.80998 2.18924,2.68022 8.27771,2.27743 11.24135,12.73757 5.15843,18.20665 -3.53676,3.17985 -6.08154,1.80964 -2.91864,-1.57151 6.81619,-7.28653 -3.07313,-14.42354 -10.50149,-7.57881 -0.75687,0.69739 -2.28321,2.08776 -3.39188,3.0897 -3.43127,3.10095 -4.71433,5.19696 -3.92175,6.4066 0.56111,0.85637 1.71446,5.39607 1.52365,5.99726 -0.17917,0.56454 -1.10149,0.47682 -2.85394,-0.27145 -1.89146,-0.80762 -2.89076,0.88389 -2.15081,3.64067 0.47924,1.78546 0.50856,3.34052 0.0661,3.50869 -0.60162,0.2287 -2.13678,-0.0677 -3.00563,-0.58036 -0.85211,-0.50276 -0.8619,-0.50223 -2.39761,0.12923 -0.8482,0.34873 -1.6765,0.63688 -1.8407,0.64033 -0.442,0.009 -3.2762,1.76226 -4.0544,2.50755 -0.3707,0.35511 -1.1,0.82357 -1.6205,1.04103 -0.5206,0.21745 -1.8898,1.1504 -3.0428,2.07321 -3.938,3.15207 -6.1642,4.48008 -9.8126,5.85353 -1.5693,0.59079 -3.9382,2.16066 -5.2136,3.45518 -0.6011,0.61004 -2.1645,2.10899 -3.4741,3.33099 -1.3097,1.222 -3.5719,3.36269 -5.0271,4.75709 -1.4552,1.3944 -3.7174,3.4177 -5.0271,4.49621 -1.3097,1.07852 -4.2267,3.78554 -6.4823,6.01561 -2.2556,2.23007 -5.1726,4.83463 -6.4823,5.78791 -6.1094,4.44688 -19.0718,11.74984 -26.8552,15.13009 -1.6735,0.72679 -3.9952,1.76596 -5.1594,2.30926 -14.7635,6.89004 -40.4079,12.23067 -59.6635,12.42539 -4.7294,0.0478 -9.1348,0.0441 -9.7896,-0.008 z m 1.1242,-6.92523 c 3.0472,-3.42088 13.2851,-24.69906 20.7186,-43.06094 1.355,-3.34698 3.0186,-7.3951 3.6969,-8.99583 1.8764,-4.42798 4.855,-13.32128 5.5693,-16.62856 0.7332,-3.3952 1.1579,-9.11912 0.612,-8.24966 -0.3877,0.6175 -3.0049,6.60986 -4.4722,10.2397 -2.7199,6.72839 -18.6493,39.59657 -22.3537,46.12394 -0.8259,1.4552 -2.7283,4.84849 -4.2276,7.54062 -1.4993,2.69214 -3.6915,6.55999 -4.8717,8.59523 -2.3407,4.03651 -2.4312,4.29838 -1.5505,4.4863 0.3274,0.0699 0.8334,0.17739 1.1245,0.23894 1.6387,0.34652 5.3543,0.15944 5.7544,-0.28974 z m -17.5812,-2.24896 c 1.311,-1.78163 3.8101,-5.72291 5.6622,-8.92969 0.7984,-1.38244 1.8705,-3.16838 2.3824,-3.96875 0.5119,-0.80036 2.4199,-4.13411 4.2399,-7.40833 1.8199,-3.27422 3.698,-6.60797 4.1733,-7.40833 1.424,-2.39739 10.6223,-20.71507 12.6883,-25.26771 1.0567,-2.32834 2.4253,-5.3049 3.0415,-6.61459 0.6161,-1.30968 1.8653,-4.10765 2.7759,-6.2177 0.9105,-2.11006 2.5855,-5.92006 3.7221,-8.46667 1.1366,-2.54662 3.0817,-6.95193 4.3224,-9.78958 1.2408,-2.83766 2.9288,-6.64766 3.7513,-8.46667 2.5755,-5.69643 4.1124,-11.50299 3.2568,-12.30507 -0.1946,-0.18249 -1.5445,-0.71932 -2.9997,-1.19297 -1.4552,-0.47364 -5.5034,-1.86581 -8.9959,-3.0937 -14.3992,-5.0625 -15.8983,-5.1043 -25.0031,-0.69717 -5.1178,2.47725 -11.8263,5.28526 -14.6844,6.14649 -2.424,0.73042 -2.3649,0.6795 -3.268,2.81589 -0.4287,1.01433 -2.0501,4.70174 -3.603,8.19424 -1.5529,3.4925 -4.2321,9.62422 -5.9538,13.62604 -5.2457,12.1924 -8.3598,19.36751 -9.1293,21.03437 -0.4031,0.87313 -1.3021,2.89719 -1.9978,4.49792 -1.7274,3.97463 -4.7002,10.55831 -6.2124,13.75834 -0.6877,1.4552 -1.4025,3.06255 -1.5883,3.57187 -0.6933,1.89994 -6.8426,15.29751 -9.4415,20.57051 -2.4157,4.90104 -2.9489,4.1732 5.2108,7.11263 12.4055,4.46893 23.9157,7.70118 34.1313,9.58461 2.349,0.43308 2.4165,0.41225 3.519,-1.08598 z m 0.3495,-14.10836 c -0.2939,-0.37367 -0.6093,-1.23657 -0.7009,-1.91755 -0.694,-5.1605 -1.6532,-5.48346 -9.1208,-3.07073 -11.291,3.64807 -20.134,-0.26142 -16.0391,-7.09087 5.0599,-8.4389 22.2496,-6.1133 26.8443,3.63178 1.9383,4.11092 1.1218,11.12381 -0.9835,8.44737 z m 2.3084,-12.08539 c -2.1019,-1.71015 -8.694,-12.25751 -10.0458,-16.07344 -1.5579,-4.39758 -0.4689,-11.85556 1.8606,-12.74121 5.3513,-2.03457 12.6243,8.55781 12.1093,17.63601 -0.2792,4.9214 -2.113,11.50937 -3.2037,11.50937 -0.1727,0 -0.4968,-0.14883 -0.7204,-0.33073 z m 5.0678,-40.86739 c -0.2182,-0.0803 -0.5937,-0.31708 -0.8344,-0.52625 -0.2407,-0.20918 -0.9477,-0.41666 -1.5711,-0.46107 -2.1821,-0.15542 -2.5223,-1.52598 -1.1909,-4.79833 2.2482,-5.5261 9.3525,-9.80537 15.3704,-9.25835 3.9101,0.35542 6.3413,1.01528 6.4274,1.74445 0.1496,1.26805 -0.3592,1.51223 -3.8265,1.83615 -6.6418,0.6205 -13.3165,3.56205 -13.3165,5.86858 0,1.85712 7.0157,1.11981 11.6867,-1.22819 8.4775,-4.26147 12.1258,-8.85766 12.1258,-15.27655 0,-1.87861 0.9522,-2.88655 1.5034,-1.59138 3.2168,7.55887 -1.3615,15.42943 -11.8902,20.44023 -5.5503,2.64147 -12.1268,4.11746 -14.4841,3.25071 z m 17.198,-18.18299 c -7.5582,-2.78919 -11.6496,-8.49734 -11.3311,-15.80884 0.2011,-4.61556 4.4826,-4.67162 9.4169,-0.12331 4.9208,4.53584 7.1752,16.78231 2.9992,16.29253 -0.088,-0.0102 -0.5757,-0.17242 -1.085,-0.36038 z m 26.1014,85.59368 c 0.9611,-0.58603 0.921,-0.26089 1.4224,-11.52819 0.3868,-8.68946 0.7839,-15.50285 1.0642,-18.25625 0.432,-4.24422 0.047,-7.06631 -0.6409,-4.69636 -0.6144,2.1169 -1.3437,5.90405 -2.7896,14.48594 -0.4413,2.61937 -1.2144,6.90562 -1.718,9.525 -1.179,6.13236 -1.6257,10.08787 -1.1977,10.60367 0.4709,0.56731 2.8447,0.48501 3.8596,-0.13381 z m 19.8826,-4.79605 c 3.0814,-1.23384 2.9474,-0.79114 2.1572,-7.12902 -0.1361,-1.09141 -0.4226,-4.48469 -0.6368,-7.54062 -0.2141,-3.05594 -0.8127,-10.67594 -1.3302,-16.93334 -1.2299,-14.8713 -1.909,-23.45639 -2.1139,-26.72292 -0.091,-1.4552 -0.4542,-6.09864 -0.8066,-10.31875 -0.3524,-4.2201 -0.8825,-11.30432 -1.178,-15.7427 -2.2156,-33.27669 -3.9168,-44.07913 -7.5607,-48.011 -0.6263,-0.67578 -3.2942,-1.03229 -3.2942,-0.4402 0,0.12767 0.4092,1.82431 0.9094,3.77031 2.213,8.61077 3.3051,18.95519 4.3817,41.50588 0.1493,3.1287 0.5118,8.90323 0.8054,12.8323 0.9227,12.34928 1.5719,20.79432 1.8406,23.94479 0.1428,1.67349 0.3836,5.1263 0.5351,7.67292 0.2639,4.43448 2.0787,27.0113 2.6372,32.80833 0.1472,1.52797 0.3861,4.5446 0.5308,6.70362 0.3421,5.10373 0.091,4.81442 3.123,3.6004 z m 11.6951,-4.1396 c 1.237,-0.50532 2.9644,-1.24846 3.8388,-1.65142 0.8744,-0.40296 1.8864,-0.82299 2.249,-0.9334 0.3625,-0.11041 1.0758,-0.4176 1.5851,-0.68266 0.5094,-0.26506 2.4144,-1.21788 4.2334,-2.11738 1.819,-0.89951 3.9026,-1.96525 4.6302,-2.36833 7.7009,-4.2661 9.8872,-5.54678 13.7366,-8.04629 10.4993,-6.81741 12.179,-8.02074 15.8775,-11.37427 4.9917,-4.52609 12.3708,-12.50963 15.9215,-17.22563 1.1216,-1.4897 9.1009,-16.77009 9.1009,-17.42831 0,-0.0798 0.6736,-1.31016 1.4969,-2.73414 2.7036,-4.67582 3.3801,-6.6784 3.7999,-11.24845 0.3532,-3.84537 0.373,-3.79401 -3.5794,-9.29501 -1.1205,-1.5596 -1.1258,-1.63894 -0.1431,-2.14713 2.2623,-1.16985 5.7981,1.4112 7.8118,5.70236 1.3218,2.8167 1.5844,2.74479 2.7062,-0.74118 2.9389,-9.13256 -0.8379,-17.56495 -7.2058,-16.08814 -1.9265,0.44677 -2.9446,0.21466 -2.6768,-0.6103 1.3991,-4.31103 3.4153,-5.80937 6.8598,-5.09791 7.52576,1.55442 11.14244,13.19424 7.0888,22.81429 -0.9834,2.33372 -3.7296,10.13355 -3.651,10.36947 0.2582,0.77459 4.31236,-5.87495 7.44718,-12.21471 0.91023,-1.84081 2.1511,-4.14921 2.75749,-5.12977 1.19391,-1.9306 3.51371,-6.96053 3.30599,-7.16824 -0.13199,-0.13199 1.19359,-3.11723 1.48845,-3.35204 0.89351,-0.71153 2.60664,-5.34654 1.79615,-4.85962 -0.26381,0.15849 -0.26428,0.11658 -0.002,-0.20716 0.18064,-0.22323 0.25009,-0.48421 0.15434,-0.57996 -0.0957,-0.0958 -0.0277,-0.17409 0.15118,-0.17409 0.64208,0 4.6576,-10.76343 5.18655,-13.90229 0.097,-0.57567 0.39633,-1.76104 0.66516,-2.63417 1.33915,-4.34935 0.74376,-4.05838 -0.81209,0.39688 -0.5336,1.52797 -1.71182,4.80218 -2.61827,7.27604 -0.90646,2.47385 -1.98491,5.45041 -2.39657,6.61458 -0.41165,1.16417 -1.52992,4.02167 -2.48503,6.35 -0.95511,2.32833 -1.73859,4.43339 -1.74107,4.67789 -0.002,0.24451 -0.35192,1.19701 -0.77654,2.11667 -0.42462,0.91966 -1.14726,2.62461 -1.60587,3.78877 -0.95769,2.43103 -1.42041,3.0544 -1.90646,2.56835 -0.17566,-0.17566 -0.52779,-0.31939 -0.78249,-0.31939 -0.92671,0 -0.97068,-0.76866 -0.18392,-3.21518 6.54739,-20.35993 -1.22835,-40.72665 -15.46588,-40.50932 -3.2608,0.0498 -3.396,-0.0398 -2.8195,-1.86965 1.1789,-3.74166 6.3589,-4.13065 13.0851,-0.98263 4.0621,1.90114 6.95866,5.406 9.90246,11.982 2.06359,4.60974 2.70643,3.86604 2.87792,-3.32945 0.40476,-16.98271 -6.78598,-27.03959 -18.30558,-25.60195 -2.8611,0.35707 -3.3383,0.20042 -3.3383,-1.09586 0,-2.83477 5.007,-4.60682 10.82135,-3.82985 5.83678,0.77996 7.67087,2.46123 12.32912,11.30189 3.39579,6.44469 4.07825,6.64514 2.88964,0.84875 -4.08528,-19.92223 -24.98271,-32.56352 -36.58571,-22.13145 -2.9764,2.67609 -3.1483,4.98969 -1.3648,18.37229 0.2812,2.11005 0.7583,6.15817 1.0601,8.99583 0.3019,2.83766 0.7747,7.00484 1.0507,9.26042 1.1644,9.51445 0.5535,13.36145 -2.1215,13.36145 -2.3427,0 -2.862,-1.59614 -4.0893,-12.5677 -0.3825,-3.41974 -0.928,-7.82505 -1.2121,-9.78959 -0.7481,-5.17207 -1.4556,-10.49092 -2.2171,-16.66875 -0.3677,-2.98317 -0.9091,-7.15036 -1.2032,-9.26041 -0.294,-2.11006 -0.8322,-6.51537 -1.1959,-9.78959 -0.3637,-3.27422 -1.0109,-8.5725 -1.4382,-11.77396 -0.4273,-3.20145 -1.0223,-8.14255 -1.3222,-10.9802 -0.2999,-2.83766 -0.712,-6.23094 -0.9157,-7.54063 -0.2037,-1.30969 -0.4501,-3.15516 -0.5475,-4.10104 -0.9301,-9.03153 -2.3004,-19.37193 -4.2523,-32.08836 -1.2955,-8.4396 -1.3573,-8.54953 -2.821,-5.01946 -0.528,1.27331 -2.0239,4.5773 -3.3244,7.34219 -1.3004,2.7649 -3.0449,6.62924 -3.8766,8.58743 -0.8318,1.95819 -1.9101,4.39897 -2.3963,5.42396 -0.4863,1.02499 -1.5478,3.32213 -2.3589,5.10476 -2.8299,6.21882 -4.3284,9.47744 -5.5666,12.10469 -0.6858,1.45521 -2.1981,4.72942 -3.3608,7.27604 -1.1627,2.54661 -2.4174,5.28505 -2.7884,6.08542 -3.4327,7.40672 -6.0921,18.47729 -6.8484,28.50885 -0.2509,3.32728 0.706,3.16454 2.5198,-0.42853 2.5517,-5.05486 9.5237,-14.32199 10.775,-14.32199 0.8762,0 0.035,2.69976 -2.4777,7.9572 -0.8644,1.80818 -2.093,4.41869 -2.7302,5.80113 -0.6373,1.38245 -3.248,6.68688 -5.8016,11.78763 -6.8755,13.73362 -6.5788,12.6429 -2.8697,10.55031 8.7033,-4.91022 11.5193,-5.83546 18.6087,-6.11413 3.5629,-0.14005 9.5306,0.21333 10.6123,0.6284 1.1332,0.43485 -0.934,1.19757 -6.3097,2.3281 -7.095,1.49211 -12.3964,3.29839 -16.8068,5.72641 -3.1822,1.75187 -3.0325,1.85445 3.0942,2.11975 14.1026,0.61068 23.0917,6.94911 27.8131,19.61174 1.3812,3.70415 -0.2602,2.99769 -4.8225,-2.07562 -4.9223,-5.47356 -9.7388,-8.26724 -18.2807,-10.60321 -1.7853,-0.48822 -14.0869,-0.71361 -15.6156,-0.28611 -1.0781,0.30148 -0.916,0.57507 1.1212,1.89292 9.5546,6.18088 14.8333,22.83965 17.8638,56.37652 0.9539,10.55543 1.8213,18.35305 2.5312,22.75417 1.7011,10.54664 -1.2207,5.77611 -3.4342,-5.60698 -0.5888,-3.02804 -1.4851,-7.64865 -1.9918,-10.26802 -0.5067,-2.61938 -1.4708,-7.44141 -2.1425,-10.71563 -0.6718,-3.27422 -1.4564,-7.26281 -1.7437,-8.86354 -0.4643,-2.58663 -1.0306,-5.24679 -3.5765,-16.80104 -4.6421,-21.06799 -9.8951,-25.95285 -28.1085,-26.13857 -10.337,-0.1054 -9.8957,-0.2114 -8.6836,2.08544 1.7139,3.24771 3.0183,8.59517 3.7375,15.32188 0.21,1.96453 0.6236,5.59593 0.919,8.06979 0.2955,2.47385 0.7856,7.53401 1.0893,11.24479 0.3037,3.71078 0.6637,7.87797 0.7999,9.26042 0.2178,2.20882 1.0077,12.37106 1.8408,23.68021 0.3578,4.85825 0.8857,11.76044 1.8413,24.07708 0.429,5.52979 0.9696,12.61401 1.2013,15.74271 0.2316,3.1287 0.4713,5.86714 0.5325,6.08542 0.061,0.21828 0.2959,2.95672 0.5215,6.08541 0.4076,5.6525 0.5736,7.39422 0.839,8.80783 0.1614,0.85975 0.1241,0.86532 3.5315,-0.52674 z m 1.4993,-17.45331 c -0.6129,-0.61293 0.2053,-4.84311 1.3911,-7.19217 4.689,-9.28895 12.2086,-13.68424 20.1673,-11.78808 2.4166,0.57576 2.4389,0.6318 1.653,4.15545 -1.4649,6.5681 -5.1041,9.40436 -15.6292,12.1808 -2.5961,0.68485 -3.8005,1.14887 -4.8429,1.86596 -1.2994,0.89378 -2.3306,1.18669 -2.7393,0.77804 z m -2.4464,-14.2334 c -0.4708,-1.87583 1.1007,-8.55428 2.5549,-10.85792 4.676,-7.40696 10.8981,-7.41614 9.5297,-0.0141 -0.8788,4.75386 -11.2732,14.10517 -12.0846,10.87198 z m -0.233,-32.46051 c -3.9079,-3.07389 -3.7795,-9.98777 0.3248,-17.49367 2.017,-3.68864 2.3964,-4.83369 2.6011,-7.85072 0.3018,-4.44545 1.2386,-5.39021 2.2139,-2.23261 1.3959,4.51948 0.8711,7.23615 -2.3982,12.4126 -3.2523,5.14966 -3.4064,8.62157 -0.5678,12.79265 1.762,2.58923 0.229,4.26183 -2.1738,2.37175 z m 6.6041,-6.32436 c -2.8672,-0.44334 -3.8365,-1.15355 -3.8365,-2.81114 0,-5.23933 13.4772,-7.47871 16.6026,-2.75872 2.6452,3.99459 -4.0532,6.91709 -12.7661,5.56986 z m -9.3786,-26.91929 c -1.1826,-1.18254 -1.231,-1.84634 -0.427,-5.84922 2.4525,-12.2106 12.3194,-17.42017 11.4564,-6.04881 -0.4694,6.18486 -8.2977,14.62973 -11.0294,11.89803 z m -131.1797,88.18374 c 5.7809,-7.17965 20.3149,-33.28364 19.1693,-34.42925 -0.2143,-0.21434 -4.4986,5.28363 -7.1198,9.13698 -3.2338,4.75374 -11.6266,16.11794 -14.4612,19.58114 -3.7392,4.56828 -3.8274,4.92822 -1.567,6.38919 2.0645,1.33436 2.4051,1.27631 3.9787,-0.67806 z m -25.8688,-17.06562 c 0.307,-4.54535 0.5869,-6.96721 0.9367,-8.10514 0.2743,-0.89256 0.8635,-4.64303 1.3093,-8.33437 1.8565,-15.3729 2.7592,-18.49856 8.4322,-29.19674 1.6964,-3.19905 3.1208,-5.95676 3.1654,-6.12824 0.096,-0.37056 -3.9258,-3.20549 -7.0926,-4.99912 -6.4796,-3.66998 -13.2291,-9.47631 -13.2291,-11.38045 0,-0.17503 -0.1815,-0.46884 -0.4033,-0.65292 -0.2218,-0.18407 -0.3419,-0.39606 -0.2669,-0.47107 0.075,-0.075 -0.011,-0.31903 -0.192,-0.54225 -0.2714,-0.3354 -0.2595,-0.37068 0.068,-0.20317 0.2183,0.11149 0.1658,0.0153 -0.1167,-0.21379 -0.2825,-0.22907 -0.3755,-0.4165 -0.2067,-0.4165 0.4645,0 0.09,-0.72401 -0.4478,-0.86452 -0.5909,-0.15453 -0.8133,-1.62664 -0.8243,-5.45626 -0.01,-2.0955 -0.079,-2.6859 -0.2867,-2.32841 -0.1532,0.26341 -0.2785,1.00665 -0.2785,1.65165 0,0.64501 -0.1089,1.23999 -0.2418,1.32218 -0.1418,0.0876 -0.1935,-0.70487 -0.1249,-1.91624 0.064,-1.13613 0.1903,-3.55397 0.2801,-5.37298 0.09,-1.81901 0.3299,-5.56948 0.5337,-8.33437 1.4847,-20.13611 1.7623,-24.74374 1.8016,-29.89792 0.039,-5.14877 -0.013,-5.9583 -0.4504,-7.01146 -0.5344,-1.28586 -0.4858,-12.00474 0.09,-19.84375 1.2219,-16.63723 1.4225,-15.00857 -2.4158,-19.6192 -6.8411,-8.21766 -8.2829,-17.48795 -4.4646,-28.70531 0.5564,-1.63475 0.9496,-3.03435 0.8738,-3.11021 -1.1023,-1.10222 -7.1661,8.33119 -8.418,13.09556 -0.4961,1.88802 -0.8785,7.57341 -0.7547,11.21937 0.097,2.84667 2.109,7.30279 4.9982,11.06797 2.5291,3.29587 3.0966,4.54933 2.2864,5.05006 -0.7688,0.47513 -7.8344,-4.21331 -10.2372,-6.79287 -8.8929,-9.54748 -8.0074,-30.13866 1.7043,-39.62959 0.5266,-0.51462 1.3146,-1.34853 1.7512,-1.85313 3.3446,-3.86583 4.1258,-4.66404 5.4356,-5.55348 1.6743,-1.13698 3.7449,-3.07002 4.2006,-3.92141 0.4356,-0.814 -0.017,-0.70129 -0.905,0.22516 -0.7164,0.74781 -0.8787,0.79375 -2.8043,0.79375 -9.8318,0 -16.0751,8.49951 -17.1874,23.3986 -0.3334,4.46543 -1.7307,15.25474 -2.1439,16.55348 -4.2002,13.20224 -12.8279,23.57435 -24.7703,29.77843 -8.1727,4.24568 -13.0874,8.86951 -16.1186,15.16456 -1.2975,2.69455 -1.4292,8.24508 -0.3274,13.79451 0.6224,3.13438 1.3127,6.18959 1.9431,8.59896 0.3807,1.45521 1.1555,4.6699 1.7217,7.14375 2.6148,11.42348 5.0857,19.74632 8.2477,27.78125 1.2584,3.19766 6.4655,13.62238 7.7026,15.4208 0.4288,0.62331 1.0278,1.69488 1.3312,2.38125 1.6315,3.69089 5.6992,10.41721 7.475,12.36045 1.3406,1.46702 1.1529,0.39424 -0.6111,-3.493 -6.0499,-13.33177 -3.1431,-24.55662 6.8135,-26.31043 2.079,-0.36622 2.5908,-0.21687 4.1928,1.22341 2.8547,2.56659 2.5879,5.74142 -0.3783,4.50208 -4.7291,-1.97595 -9.7055,4.03982 -8.825,10.6682 0.9795,7.37343 1.8178,8.76854 3.3064,5.50208 1.4247,-3.12621 5.0471,-5.98297 7.5865,-5.98297 1.8832,0 1.6548,0.85269 -1.0028,3.74349 -1.7816,1.93788 -1.8372,2.08642 -2.2384,5.97902 -0.4888,4.74362 -0.134,5.99488 3.4326,12.10562 0.9343,1.60073 3.3356,6.15192 5.3361,10.11375 3.7914,7.50835 4.122,8.03392 7.3682,11.71438 7.0176,7.95626 22.042,21.77538 22.8052,20.97572 0.1081,-0.11326 0.3936,-3.12296 0.6345,-6.68822 z m -55.9076,-57.38519 c -0.1765,-0.10905 -0.7202,-1.14507 -1.2082,-2.30227 -0.488,-1.1572 -1.2618,-2.84582 -1.7195,-3.75249 -0.4577,-0.90667 -1.0778,-2.27336 -1.3779,-3.03709 -0.3002,-0.76372 -0.7068,-1.74578 -0.9035,-2.18234 -1.6795,-3.7265 -2.9014,-6.91447 -3.8536,-10.05417 -0.6178,-2.03729 -1.8923,-5.6687 -2.832,-8.06979 -0.9398,-2.40109 -1.867,-4.9014 -2.0604,-5.55625 -5.8394,-19.76756 -5.7903,-31.92185 0.1691,-41.83741 3.6659,-6.09946 6.6149,-8.56396 22.1678,-18.52613 5.0858,-3.25761 10.0067,-9.07303 13.3958,-15.83074 2.0053,-3.99843 2.3352,-4.18156 3.1427,-1.74452 0.8885,2.68124 0.2141,6.47533 -1.7435,9.80859 -4.4036,7.49863 -7.4286,10.34449 -17.1995,16.18102 -12.2315,7.30642 -17.9756,14.12435 -18.8604,22.38645 -0.2739,2.55774 0.1391,2.29546 1.8816,-1.19507 8.2754,-16.57689 22.7114,-24.37596 35.9182,-19.40493 8.3649,3.14856 13.0202,11.93739 10.2244,19.30301 -1.3783,3.63111 -3.4578,3.37169 -2.8379,-0.35403 2.5432,-15.28555 -18.313,-19.61467 -31.9203,-6.62569 -5.5726,5.31936 -10.496,14.56983 -10.4806,19.69167 0.01,2.98913 0.5928,2.65855 2.6812,-1.51833 3.692,-7.38364 7.2894,-11.3483 10.9408,-12.05768 5.8874,-1.14379 11.0821,-0.36523 13.4655,2.01813 1.8814,1.88146 0.9113,2.75678 -2.4504,2.21085 -11.6021,-1.88414 -21.2764,10.59524 -20.2891,26.1719 0.3854,6.08056 0.9343,6.34288 3.4623,1.65465 5.1955,-9.63496 13.861,-14.79141 20.5752,-12.24336 3.4002,1.2904 4.7282,4.98843 1.5485,4.31196 -14.3971,-3.06286 -24.9442,19.01561 -18.5704,38.87367 0.6565,2.0454 0.6967,2.36236 0.3606,2.84222 -0.4971,0.70972 -1.2264,1.0855 -1.6265,0.83817 z m 65.0581,52.55654 c 1.3561,-1.72998 5.8747,-6.95881 10.5651,-12.22576 16.7296,-18.7858 29.5877,-36.38268 29.3196,-40.12528 -0.1017,-1.42079 -1.1328,-0.44703 -6.2289,5.88275 -1.713,2.12778 -4.4865,5.402 -6.1633,7.27604 -1.6768,1.87404 -4.3075,4.89565 -5.846,6.71468 -1.5385,1.81903 -4.2742,4.91565 -6.0794,6.88137 -2.7033,2.94363 -7.9091,8.81179 -13.2302,14.91326 -2.8184,3.23182 -4.1122,5.90261 -4.3951,9.07268 -0.2925,3.27851 0.354,3.78432 2.0582,1.61026 z m 9.6523,-53.18125 c 0.6655,-0.90951 1.817,-2.66568 2.5589,-3.90261 0.742,-1.23692 3.0519,-4.99742 5.1331,-8.35666 6.5195,-10.52299 6.533,-10.60942 1.2906,-8.22789 -1.3097,0.59496 -3.2128,1.58003 -4.2291,2.18903 -1.7882,1.07152 -1.8667,1.09255 -2.428,0.65103 -0.319,-0.25093 -1.1382,-0.66944 -1.8205,-0.93001 -2.14,-0.81726 -1.1482,-4.14956 2.7682,-9.30084 2.9927,-3.93638 3.5384,-5.41548 2.2037,-5.97358 -0.4002,-0.16734 -2.335,-1.04734 -4.2995,-1.95556 -1.9645,-0.90822 -4.2862,-1.88249 -5.1594,-2.16505 -2.3332,-0.75509 -5.3885,-1.58462 -6.7468,-1.83179 -0.7838,-0.14263 -1.1907,-0.35187 -1.1907,-0.61236 0,-1.04551 7.9355,-0.18918 15.7324,1.69771 4.5863,1.10991 3.8695,1.91344 4.9354,-5.53312 2.868,-20.03747 2.9866,-17.89391 -1.0225,-18.49026 -1.7826,-0.26518 -4.2531,-0.65086 -5.4901,-0.85708 -1.2369,-0.20622 -3.8563,-0.61687 -5.8208,-0.91255 -1.9645,-0.29569 -6.0722,-1.00182 -9.1281,-1.56918 -8.1353,-1.51039 -7.3495,-1.61833 -7.7121,1.05942 -1.6324,12.05459 -3.0865,42.72462 -2.2392,47.22812 0.9373,4.98159 7.7122,11.69445 18.2632,18.09601 2.8254,1.71424 2.9308,1.70699 4.4013,-0.30278 z m 39.3305,-9.2112 c 1.6715,-0.3356 6.7767,-1.89235 12.2444,-3.73373 3.6101,-1.2158 6.5309,-2.4216 19.6853,-8.12676 10.6099,-4.60154 12.9697,-4.53749 28.3768,0.77019 15.9125,5.48176 14.641,5.44785 14.6818,0.3916 0.081,-9.98878 -1.5771,-18.797 -4.1708,-22.16171 -0.4847,-0.62883 -4.1568,-1.18204 -21.3935,-3.223 -12.9934,-1.53852 -44.6377,-2.64672 -50.2708,-1.76051 -6.8301,1.07452 -13.0958,4.29293 -24.8162,12.7471 -4.3635,3.1475 -11.7689,12.0199 -11.0301,13.21527 0.4587,0.74222 3.4087,-0.49775 7.6681,-3.22314 2.5636,-1.64031 14.6899,-8.57279 15.924,-9.10351 1.5867,-0.68243 4.6327,-1.70404 5.0807,-1.70404 0.7938,0 -2.1983,2.64105 -4.622,4.07979 -2.3304,1.38337 -8.4432,5.82856 -9.9665,7.24765 -1.4807,1.37933 -0.1431,4.28298 1.973,4.28298 0.9815,0 5.9336,-2.00662 13.6347,-5.52482 6.3746,-2.91216 5.1019,0.0654 -1.3864,3.24362 -6.6866,3.27541 -8.4468,4.8871 -6.813,6.23816 2.0637,1.7066 2.7408,1.68648 9.4589,-0.28099 5.9425,-1.74033 8.625,-2.41549 8.8167,-2.21906 0.6067,0.62148 -3.9166,3.36607 -7.6261,4.6273 -4.4664,1.51858 -4.9393,1.87557 -3.8456,2.90308 1.4786,1.389 5.1573,1.96492 8.3966,1.31453 z m -21.9782,-31.77704 c 2.5985,-1.88995 2.8541,-3.02705 1.9434,-8.64263 -0.2202,-1.35789 -0.5807,-3.8582 -0.8011,-5.55625 -0.7207,-5.55311 -2.1214,-9.77033 -2.7256,-8.20676 -0.3618,0.93615 -2.1699,13.92192 -3.333,23.93664 -0.2081,1.79221 0.7632,1.48974 4.9163,-1.531 z m 93.335,-7.76183 c 2.7192,-1.32347 3.9988,-1.58699 9.4635,-1.94897 5.0522,-0.33466 4.9553,-0.23504 9.8225,-10.08898 1.6172,-3.27422 3.6745,-7.26281 4.5717,-8.86354 4.3233,-7.71303 10.7491,-20.54163 16.6987,-33.3375 2.0299,-4.36563 3.927,-8.3411 4.2157,-8.83438 0.2888,-0.49329 1.6353,-3.35079 2.9923,-6.35 3.5597,-7.86779 8.15,-17.89922 9.941,-21.725 0.8516,-1.81901 2.1984,-4.79557 2.9929,-6.61458 0.7944,-1.81901 2.1266,-4.73604 2.9603,-6.48229 3.9164,-8.20323 6.219,-13.12539 6.219,-13.29417 0,-0.10168 1.6308,-3.50908 3.6239,-7.57202 5.4668,-11.14408 5.3148,-11.61591 -5.2671,-16.3418 -1.6429,-0.73369 -5.1896,-2.38177 -7.8818,-3.66241 -2.6921,-1.28064 -6.2045,-2.89443 -7.8052,-3.58619 -1.6007,-0.69177 -3.5653,-1.55116 -4.3656,-1.90977 -5.579,-2.49967 -13.4296,-5.23499 -14.3569,-5.00225 -1.9946,0.50061 -13.5825,20.74444 -32.3576,56.52798 -1.7179,3.27422 -4.0615,7.73906 -5.2079,9.92188 -1.98,3.76995 -5.6212,11.11605 -7.9343,16.00729 -2.6694,5.64497 -3.2985,7.03254 -5.1581,11.37708 -1.09,2.54662 -2.3411,5.46365 -2.7802,6.48229 -0.4391,1.01865 -1.2452,2.98318 -1.7914,4.36563 -1.5877,4.01878 -5.9806,14.82602 -6.6141,16.27187 -0.3188,0.72761 -1.2106,2.93027 -1.9818,4.8948 -2.3783,6.05869 -4.5537,11.43514 -5.2993,13.09687 -0.3917,0.87313 -1.4602,3.43297 -2.3744,5.68854 -0.9142,2.25558 -2.0326,4.87495 -2.4852,5.82084 -1.5676,3.27572 -1.7423,3.15977 5.3943,3.57847 2.4949,0.14637 12.721,1.1492 22.7542,2.23143 7.7631,0.83736 9.1017,0.7648 12.0109,-0.65112 z m 6.2333,-9.77696 c -0.8864,-0.88642 -0.8217,-1.48697 0.3987,-3.69774 1.8411,-3.33525 2.4999,-8.26554 1.3988,-10.4695 -0.9575,-1.91675 -4.4666,-1.10207 -9.7154,2.25552 -9.6052,6.1444 -19.4573,2.66164 -14.1777,-5.01192 6.9733,-10.13535 27.4821,-5.66643 28.0153,6.10459 0.237,5.23474 -3.9152,12.82356 -5.9197,10.81905 z m 3.8294,-22.34888 c -2.6589,-1.96351 -7.4741,-8.33673 -9.1333,-12.08836 -3.1172,-7.04853 -1.5315,-15.68998 2.7624,-15.0542 7.7763,1.15141 11.6405,10.76442 9.5449,23.74535 -0.8673,5.37275 -0.7169,5.21174 -3.174,3.39721 z m 20.855,-26.23539 c -0.6692,-0.38977 -0.5874,-0.90853 0.6048,-3.83765 4.8547,-11.92733 3.4619,-17.35427 -7.3956,-28.8172 -8.4244,-8.89416 -9.7857,-11.51335 -7.1409,-13.73883 2.252,-1.8949 6.654,0.58988 4.8478,2.7364 -0.6833,0.81213 -0.6833,0.81213 -0.2287,2.20311 0.7636,2.33646 1.1102,2.80808 4.994,6.7958 9.3359,9.58574 11.8791,14.73143 11.0381,22.33337 -0.7627,6.89445 -4.4455,13.64947 -6.7195,12.325 z m -20.9682,-7.80019 c -4.1947,-0.92283 -5.0646,-1.87001 -4.0916,-4.4553 2.35,-6.24456 11.3158,-9.1921 20.6728,-6.79629 5.9619,1.52651 6.0162,3.27083 0.2233,7.16341 -6.0076,4.03679 -11.2458,5.31111 -16.8045,4.08818 z m 35.708,-29.23211 c -0.6351,-0.70185 -0.367,-1.76211 1.5612,-6.17249 0.7714,-1.76461 1.5978,-3.74417 1.8363,-4.39902 2.4211,-6.64775 1.2852,-14.29499 -3.6548,-24.60625 -1.0806,-2.25557 -2.2367,-4.87495 -2.569,-5.82083 -0.6042,-1.71979 -0.6042,-1.71979 -2.3496,-1.85208 -2.092,-0.15856 -2.4368,-0.40942 -3.1377,-2.28299 -1.8306,-4.89255 4.2724,-7.75633 6.331,-2.97083 0.524,1.21793 0.538,1.37584 0.1595,1.79412 -0.9547,1.05485 -0.3994,2.81722 2.0875,6.62615 6.6797,10.23031 8.5495,17.1323 7.1704,26.46688 -1.0135,6.85955 -5.6803,15.15605 -7.4348,13.21734 z m -2.3797,-14.61528 c -10.9121,-5.6725 -15.3307,-11.36958 -14.8197,-19.10727 0.2883,-4.36455 0.5508,-4.47944 5.8151,-2.54426 7.459,2.74198 12.8231,10.96627 12.8445,19.69343 0.01,3.83961 -0.1066,3.8988 -3.8399,1.9581 z m -107.4314,105.50013 c 0.3764,-0.24664 2.0415,-2.24998 3.7002,-4.45187 1.6587,-2.20189 4.0128,-5.31313 5.2313,-6.91386 3.1486,-4.13635 4.9913,-6.74172 8.6078,-12.17083 4.228,-6.34698 11.6612,-18.81002 13.9657,-23.41563 0.6917,-1.38245 2.9049,-5.56684 4.9182,-9.29865 2.0132,-3.73181 5.1358,-9.62541 6.9389,-13.09688 7.9526,-15.31081 10.6089,-19.98725 27.0298,-47.58676 8.3907,-14.10284 10.1364,-16.91284 15.8612,-25.53229 3.7434,-5.63611 4.7525,-7.97866 3.2397,-7.52113 -0.5645,0.17073 -17.7705,11.59788 -25.9151,17.21115 -2.2964,1.58273 -5.9278,4.04355 -8.0698,5.4685 -2.1419,1.42495 -7.6449,5.13934 -12.2288,8.2542 -4.5839,3.11486 -12.3229,8.2969 -17.1979,11.51565 -4.8749,3.21874 -9.8756,6.54946 -11.1125,7.40159 -1.2369,0.85214 -5.1414,3.46426 -8.6766,5.80473 -11.6127,7.68819 -27.667,19.96496 -32.0882,24.53797 -5.1302,5.30641 -8.9245,10.97328 -10.425,15.56971 -2.709,8.2989 -1.8273,12.83903 5.6264,28.97089 1.3119,2.83922 2.9027,6.34195 3.5352,7.78385 1.4865,3.38856 0.8667,3.61461 7.3798,-2.69142 7.3842,-7.14948 15.9244,-14.88486 16.4334,-14.88486 1.3238,0 -2.7232,5.26953 -16.8206,21.90151 -3.4082,4.02098 -4.4923,8.53804 -2.8056,11.68975 0.7057,1.3187 16.5454,-14.49252 31.8057,-31.74874 6.5363,-7.39114 19.347,-24.40975 23.3946,-31.07898 1.6269,-2.68074 1.804,-2.07065 0.3534,1.21785 -0.6032,1.36748 -1.4301,3.31976 -1.8375,4.3384 -0.6663,1.66582 -4.4894,8.73259 -8.691,16.06468 -0.8575,1.49641 -3.0168,5.28058 -4.7984,8.40928 -1.7816,3.1287 -4.9098,8.60558 -6.9515,12.17084 -2.0418,3.56526 -4.0143,7.01807 -4.3834,7.67291 -0.3691,0.65485 -2.358,3.75047 -4.4196,6.87917 -5.3425,8.10764 -5.8051,10.28465 -1.5998,7.52927 z m -19.8821,-35.03817 c -4.085,-2.49073 -4.4724,-8.03714 -1.0896,-15.59992 3.1879,-7.12709 7.0733,-4.56871 7.8193,5.14879 0.471,6.13494 -3.5548,12.38697 -6.7297,10.45113 z m -8.6866,-17.85864 c -2.3032,-5.51214 7.2091,-11.14634 18.3737,-10.88292 2.9987,0.0708 5.9285,0.0247 6.5106,-0.10226 0.6544,-0.14277 1.5128,-0.12607 2.2489,0.0437 0.6549,0.15106 2.2839,0.35104 3.62,0.44442 2.7176,0.18991 3.8569,0.74895 4.0027,1.96407 0.2217,1.84882 -5.8066,1.63708 -6.9082,-0.24265 -0.1164,-0.19857 -0.5071,-0.36103 -0.8684,-0.36103 -0.3612,0 -1.0839,-0.17846 -1.6059,-0.39657 -0.9291,-0.38818 -0.9688,-0.37929 -1.88,0.42076 -0.9173,0.80541 -1.2572,0.85601 -2.5779,0.38384 -1.0933,-0.39088 2.4843,1.75694 5.0271,3.01802 5.5248,2.73993 10.1456,2.86359 14.5951,0.39058 3.0821,-1.71301 4.9191,-0.56614 2.8181,1.75941 -4.2573,4.71226 -10.7158,4.67555 -20.4491,-0.11621 -10.5986,-5.21771 -15.4785,-4.41441 -21.0445,3.46421 -0.963,1.36313 -1.3625,1.40873 -1.8622,0.21258 z m 32.2685,-15.39011 c -1.725,-9.19455 3.1082,-19.78923 9.7784,-21.43528 10.502,-2.59162 4.1421,16.19809 -7.3178,21.61951 -2.091,0.98923 -2.2426,0.97788 -2.4606,-0.18423 z m 21.246,-11.37425 c -1.8704,-1.8704 2.512,-8.45942 7.2637,-10.9213 7.9133,-4.09986 19.4832,-1.45949 14.2716,3.25694 -0.5248,0.47491 -0.9145,0.4948 -6.8556,0.34983 -8.1141,-0.19799 -9.2043,0.27996 -12.233,5.36309 -1.1132,1.86819 -1.9013,2.4968 -2.4467,1.95144 z m 12.2479,-16.72679 c -1.2436,-0.66745 -1.3101,-1.57324 -0.3006,-4.09449 0.4339,-1.08344 1.0497,-2.84712 1.3685,-3.91929 1.9026,-6.39801 7.7372,-10.60542 12.7692,-9.20806 2.9074,0.80737 1.5465,8.00126 -2.2634,11.96489 -3.1182,3.24394 -9.7293,6.24682 -11.5737,5.25695 z m -70.8419,80.30905 c -0.1336,-2.58526 -0.6507,-2.87063 -6.5633,-3.62209 -2.4658,-0.3134 -5.9716,-0.85178 -7.7906,-1.19641 -4.2958,-0.81385 -12.1923,-2.4648 -12.6951,-2.65419 -0.8711,-0.32813 -6.7254,-1.42245 -6.8647,-1.28318 -0.4633,0.46328 -0.3249,4.30042 0.1646,4.56236 1.4687,0.78606 22.1418,4.54561 28.6556,5.21124 5.1496,0.52622 5.1731,0.52152 5.0935,-1.01773 z m -2.929,-8.2514 c -0.3415,-2.13928 -2.1204,-4.13004 -4.3626,-4.88236 -2.507,-0.84115 -2.4618,-0.76506 -1.5398,-2.59143 2.4964,-4.9453 1.6337,-5.7768 -8.1684,-7.87305 -1.819,-0.38901 -5.9597,-1.35656 -9.2017,-2.1501 -7.3784,-1.80605 -6.7062,-2.32046 -7.2101,5.51733 -0.4747,7.38269 -0.7897,6.80853 4.4601,8.12847 10.9897,2.76306 26.2083,5.01531 26.0225,3.85114 z m -62.3572,-75.34109 c 5.4778,-8.78606 9.5743,-11.39449 15.6646,-9.97439 2.1569,0.50292 4.0653,1.35601 5.1664,2.30955 2.136,1.8498 2.8515,-4.75524 1.0684,-9.86283 -1.8305,-5.24301 -3.2201,-13.50882 -2.8452,-16.92335 0.7158,-6.51882 4.1441,-14.70778 7.758,-18.53081 0.5502,-0.58209 1.5688,-1.77271 2.2634,-2.64584 0.6946,-0.87312 1.8187,-2.1316 2.4978,-2.79661 3.3716,-3.30123 8.2236,-9.67118 9.634,-12.64808 2.2911,-4.83563 1.6903,-7.09203 -1.163,-4.36799 -1.0694,1.02094 -3.2541,3.03143 -4.8548,4.46776 -17.2723,15.49834 -21.8263,22.15047 -23.4445,34.24614 -0.7012,5.24154 1.7894,15.0774 5.6205,22.19599 1.792,3.32975 1.2688,4.19955 -1.4449,2.40206 -1.9083,-1.264 -7.3218,-8.00116 -7.3218,-9.11206 0,-2.64186 -5.6656,2.0656 -8.0186,6.66254 -2.1718,4.24305 -3.8942,14.08797 -2.9726,16.99162 0.2811,0.88561 0.4272,0.73826 2.3923,-2.4137 z m 113.7308,-9.12714 c 2.2765,-1.56435 6.372,-4.30043 9.101,-6.08018 13.8133,-9.00832 22.5757,-14.6939 25.515,-16.55579 1.7927,-1.13553 5.0454,-3.20588 7.2282,-4.60077 6.7237,-4.29669 16.6793,-10.45799 20.7035,-12.81301 7.4285,-4.34726 7.4221,-4.31293 1.2569,-6.72233 -6.4086,-2.50452 -12.2561,-6.1538 -14.3905,-8.9808 -4.1821,-5.5392 -5.0755,-8.60053 -5.716,-19.58724 -0.3072,-5.26869 -0.1354,-5.1832 -3.8383,-1.90976 -15.7529,13.92568 -22.6195,15.18798 -35.6822,6.55953 -2.9625,-1.95689 -2.6616,-2.17521 -2.9409,2.13386 -0.2601,4.01288 -1.0307,9.05443 -2.0368,13.32471 -0.9036,3.83524 -0.9505,7.75524 -0.1439,12.03855 2.5996,13.80576 -0.082,23.94254 -9.3999,35.52707 -0.91,1.1315 -1.6546,2.26587 -1.6546,2.52081 0,1.43367 6.177,7.98962 7.5278,7.98962 0.1823,0 2.1942,-1.27992 4.4707,-2.84427 z m -24.8165,-0.62854 c 13.1592,-8.31616 20.2418,-19.99315 20.682,-34.09803 0.3022,-9.68418 -1.2328,-11.80078 -2.2985,-3.16936 -1.8124,14.67892 -4.7344,20.41136 -17.1883,33.72064 -1.9021,2.03284 -3.4585,3.84854 -3.4585,4.0349 0,0.57144 0.8906,0.37936 2.2633,-0.48815 z m -60.7278,-66.67826 c 2.5202,-1.82565 10.0063,-9.8767 10.1069,-10.86962 0.034,-0.33181 0.063,-4.59187 0.066,-9.46682 0.01,-14.39036 1.9151,-19.19729 12.2218,-30.80914 6.9807,-7.86455 11.5672,-14.95344 11.0225,-17.03625 -0.3055,-1.16824 -1.0144,-0.56657 -5.5154,4.68076 -1.293,1.50732 -5.9464,6.26982 -10.341,10.58333 -11.6044,11.39034 -14.1404,14.39262 -17.9108,21.20422 -4.4329,8.00845 -5.5095,16.60976 -3.3663,26.89623 1.0829,5.19757 1.8387,6.1773 3.7162,4.81729 z m 112.4395,-6.96238 c 12.7398,-4.68717 25.6221,-19.46081 30.6999,-35.20703 1.0976,-3.40369 1.0402,-3.3416 2.6222,-2.83568 2.8367,0.90713 4.7058,-1.32141 7.8476,-9.35636 3.9162,-10.01572 3.6063,-16.77499 -0.7692,-16.77499 -1.053,0 -2.3061,1.95168 -4.0187,6.25896 -1.806,4.5421 -2.5151,4.35347 -2.5151,-0.669 0,-10.07561 -0.6127,-11.49404 -6.9494,-16.08721 -8.5926,-6.22848 -12.2818,-10.81943 -15.8024,-19.66525 -0.6081,-1.52797 -1.4163,-3.46511 -1.7958,-4.30476 -0.7854,-1.7372 -0.7852,-1.73885 0.6919,-6.94004 1.8349,-6.46063 2.9965,-14.02174 2.0014,-13.02664 -0.1355,0.1355 -0.8681,3.08739 -0.9512,3.83237 -0.02,0.1819 -0.1262,0.33073 -0.2353,0.33073 -0.1091,0 -0.2526,-0.14883 -0.3189,-0.33073 -0.066,-0.1819 -0.2123,0.14552 -0.3246,0.72761 -0.6523,3.38102 -3.4373,10.17946 -5.1074,12.46779 -1.0134,1.3886 -2.6852,1.6744 -9.7857,1.67293 -9.1804,-0.002 -11.8252,1.17171 -16.4916,7.31806 -3.6206,4.76876 -5.5758,8.84477 -7.5306,15.6989 -1.4303,5.01508 -1.4461,4.65918 0.2241,5.0562 6.5879,1.56605 15.2797,5.76527 15.2797,7.382 0,1.63641 -3.8769,0.80967 -13.1428,-2.80271 -3.0465,-1.1877 -3.8945,-1.36203 -4.2023,-0.86397 -0.8773,1.41954 -3.2788,9.57953 -3.2871,11.16953 -0.012,2.2142 6.4852,3.48266 13.2238,2.58184 5.4136,-0.72369 5.9044,0.19958 1.3229,2.48869 -5.211,2.6037 -9.2675,3.09651 -14.4975,1.76128 -1.3525,-0.34529 -2.4972,-0.58341 -2.5438,-0.52917 -0.047,0.0543 -0.8288,1.34879 -1.738,2.87675 -0.9093,1.52797 -2.6676,4.29194 -3.9074,6.14215 -2.6968,4.0247 -2.2063,7.36142 2.4617,16.74431 2.3066,4.6364 7.411,11.06047 11.4938,14.46534 12.5622,10.47631 20.1881,13.3091 28.0458,10.4181 z m -9.1418,-10.8591 c -4.1073,-1.10814 -5.6439,-2.12404 -9.0623,-5.99158 -3.3609,-3.8024 -3.3781,-3.67926 0.7416,-5.30241 6.0435,-2.3811 14.883,-2.95131 18.5209,-1.19474 0.8003,0.38646 2.1059,0.83788 2.9011,1.00316 2.4395,0.50697 3.2239,1.58743 2.3473,3.23332 -2.8178,5.29083 -10.74,9.52265 -15.4486,8.25225 z m 20.1074,-38.46991 c -3.6254,-0.98562 -9.6427,-3.79989 -9.6427,-4.5099 0,-0.55789 3.1681,-0.82765 6.1066,-0.51997 5.0696,0.53081 8.1461,0.24443 11.1468,-1.03763 7.192,-3.07275 8.9941,-2.06612 4.5086,2.51854 -3.8035,3.88769 -7.2072,4.88439 -12.1193,3.54896 z m -11.8271,-14.21646 c -0.7408,-1.22515 2.3835,-4.4188 6.0319,-6.16565 10.4119,-4.98524 16.8194,-4.70022 22.4878,1.00031 2.3728,2.38625 1.2566,2.98888 -2.3853,1.28783 -4.3322,-2.02345 -7.6842,-1.74635 -16.4093,1.35657 -6.4643,2.29888 -9.3993,3.05969 -9.7251,2.52094 z m 73.6544,56.81853 c 1.8085,-4.2187 2.1605,-3.31106 -3.8729,-9.98858 -2.9375,-3.2511 -5.9463,-7.02381 -8.835,-11.07833 -2.8485,-3.9981 -3.1996,-4.41365 -3.1996,-3.78716 0,5.65662 3.8242,14.25512 10.5688,23.7632 3.6484,5.14336 3.6053,5.13455 5.3387,1.09087 z m -152.7206,-1.923 c 10.4442,-5.89431 26.0125,-19.80428 25.3078,-22.61199 -0.2306,-0.91863 -0.6838,-0.78659 -2.012,0.58622 -1.4882,1.53818 -10.3224,9.1371 -16.3931,14.10083 -5.5713,4.55539 -9.2604,7.89925 -9.2604,8.39371 0,0.57967 0.7719,0.42619 2.3577,-0.46877 z m 156.6544,-12.16601 c -0.9558,-11.6598 -2.7033,-15.75446 -10.7131,-25.10265 -1.3097,-1.52853 -3.7914,-4.59429 -5.5148,-6.81279 -4.2784,-5.50723 -4.0422,-5.508 -3.4907,0.0114 0.9139,9.14793 2.4117,13.57629 6.9544,20.56046 2.0445,3.14331 12.5823,15.35385 12.941,14.99516 0.062,-0.0623 -0.017,-1.70556 -0.1768,-3.65163 z m -159.5772,-10.31656 c 16.5348,-9.33166 27.4182,-19.7042 31.9352,-30.43598 2.0859,-4.95601 0.9606,-4.27698 -3.7938,2.28922 -4.6932,6.48163 -10.3297,11.89458 -21.8877,21.01966 -4.45,3.51328 -8.599,7.18776 -8.599,7.61556 0,0.55228 0.7943,0.38684 2.3453,-0.48846 z m 39.1861,-14.44191 c 6.0001,-6.81654 11.0965,-27.44251 5.5375,-22.41175 -0.9275,0.83942 -7.646,20.47562 -7.646,22.34718 0,1.7381 0.6187,1.75705 2.1085,0.0646 z m 9.3485,-26.79676 c 0.1168,-0.10521 0.9644,-2.44133 1.8836,-5.19136 1.9538,-5.84503 3.3316,-9.17072 5.478,-13.22229 2.1243,-4.00997 2.0321,-4.72911 -0.3711,-2.89412 -3.7151,2.83668 -10.9632,17.33249 -10.4532,20.90593 0.1126,0.78894 2.7001,1.08922 3.4627,0.40184 z"
       id="path2" /></g></svg>
